<!-- Generated by graphviz version 2.40.1 (20161225.0304)
 -->
<!-- Title: G Pages: 1 -->
<svg width="967pt" height="116pt"
 viewBox="0.00 0.00 967.08 116.00" xmlns="http://www.w3.org/2000/svg" xmlns:xlink="http://www.w3.org/1999/xlink">
<g id="graph0" class="graph" transform="scale(1 1) rotate(0) translate(4 112)">
<title>G</title>
<polygon fill="#ffffff" stroke="transparent" points="-4,4 -4,-112 963.0823,-112 963.0823,4 -4,4"/>
<!-- getOwner -->
<g id="node1" class="node">
<title>getOwner</title>
<ellipse fill="none" stroke="#000000" cx="48.4472" cy="-90" rx="48.3945" ry="18"/>
<text text-anchor="middle" x="48.4472" y="-85.8" font-family="sans" font-size="14.00" fill="#000000">getOwner</text>
</g>
<!-- getBoxSize -->
<g id="node2" class="node">
<title>getBoxSize</title>
<ellipse fill="none" stroke="#000000" cx="169.4472" cy="-90" rx="54.6851" ry="18"/>
<text text-anchor="middle" x="169.4472" y="-85.8" font-family="sans" font-size="14.00" fill="#000000">getBoxSize</text>
</g>
<!-- getFee -->
<g id="node3" class="node">
<title>getFee</title>
<ellipse fill="none" stroke="#000000" cx="279.4472" cy="-90" rx="37.7785" ry="18"/>
<text text-anchor="middle" x="279.4472" y="-85.8" font-family="sans" font-size="14.00" fill="#000000">getFee</text>
</g>
<!-- Subscription -->
<g id="node4" class="node">
<title>Subscription</title>
<ellipse fill="none" stroke="#000000" cx="504.4472" cy="-90" rx="58.5445" ry="18"/>
<text text-anchor="middle" x="504.4472" y="-85.8" font-family="sans" font-size="14.00" fill="#000000">Subscription</text>
</g>
<!-- require -->
<g id="node5" class="node">
<title>require</title>
<ellipse fill="none" stroke="#000000" cx="504.4472" cy="-18" rx="37.7699" ry="18"/>
<text text-anchor="middle" x="504.4472" y="-13.8" font-family="sans" font-size="14.00" fill="#000000">require</text>
</g>
<!-- Subscription&#45;&gt;require -->
<g id="edge1" class="edge">
<title>Subscription&#45;&gt;require</title>
<path fill="none" stroke="#000000" d="M504.4472,-71.8314C504.4472,-64.131 504.4472,-54.9743 504.4472,-46.4166"/>
<polygon fill="#000000" stroke="#000000" points="507.9473,-46.4132 504.4472,-36.4133 500.9473,-46.4133 507.9473,-46.4132"/>
</g>
<!-- claimFee -->
<g id="node6" class="node">
<title>claimFee</title>
<ellipse fill="none" stroke="#000000" cx="381.4472" cy="-90" rx="45.9632" ry="18"/>
<text text-anchor="middle" x="381.4472" y="-85.8" font-family="sans" font-size="14.00" fill="#000000">claimFee</text>
</g>
<!-- claimFee&#45;&gt;require -->
<g id="edge2" class="edge">
<title>claimFee&#45;&gt;require</title>
<path fill="none" stroke="#000000" d="M407.232,-74.9064C425.9251,-63.9641 451.3551,-49.0783 471.5175,-37.2759"/>
<polygon fill="#000000" stroke="#000000" points="473.5055,-40.1678 480.3675,-32.0954 469.9692,-34.1267 473.5055,-40.1678"/>
</g>
<!-- asyncSend -->
<g id="node7" class="node">
<title>asyncSend</title>
<ellipse fill="none" stroke="#000000" cx="388.4472" cy="-18" rx="53.7246" ry="18"/>
<text text-anchor="middle" x="388.4472" y="-13.8" font-family="sans" font-size="14.00" fill="#000000">asyncSend</text>
</g>
<!-- claimFee&#45;&gt;asyncSend -->
<g id="edge3" class="edge">
<title>claimFee&#45;&gt;asyncSend</title>
<path fill="none" stroke="#000000" d="M383.2136,-71.8314C383.9623,-64.131 384.8525,-54.9743 385.6845,-46.4166"/>
<polygon fill="#000000" stroke="#000000" points="389.1729,-46.7051 386.657,-36.4133 382.2057,-46.0276 389.1729,-46.7051"/>
</g>
<!-- FeeClaimed -->
<g id="node8" class="node">
<title>FeeClaimed</title>
<ellipse fill="none" stroke="#000000" cx="258.4472" cy="-18" rx="57.5667" ry="18"/>
<text text-anchor="middle" x="258.4472" y="-13.8" font-family="sans" font-size="14.00" fill="#000000">FeeClaimed</text>
</g>
<!-- claimFee&#45;&gt;FeeClaimed -->
<g id="edge4" class="edge">
<title>claimFee&#45;&gt;FeeClaimed</title>
<path fill="none" stroke="#000000" d="M355.6624,-74.9064C337.9467,-64.5363 314.1803,-50.6242 294.5811,-39.1516"/>
<polygon fill="#000000" stroke="#000000" points="296.3044,-36.1048 285.9061,-34.0735 292.7681,-42.1459 296.3044,-36.1048"/>
</g>
<!-- wineReceived -->
<g id="node9" class="node">
<title>wineReceived</title>
<ellipse fill="none" stroke="#000000" cx="782.4472" cy="-90" rx="65.3256" ry="18"/>
<text text-anchor="middle" x="782.4472" y="-85.8" font-family="sans" font-size="14.00" fill="#000000">wineReceived</text>
</g>
<!-- receiveWine -->
<g id="node10" class="node">
<title>receiveWine</title>
<ellipse fill="none" stroke="#000000" cx="640.4472" cy="-90" rx="58.5273" ry="18"/>
<text text-anchor="middle" x="640.4472" y="-85.8" font-family="sans" font-size="14.00" fill="#000000">receiveWine</text>
</g>
<!-- receiveWine&#45;&gt;require -->
<g id="edge5" class="edge">
<title>receiveWine&#45;&gt;require</title>
<path fill="none" stroke="#000000" d="M610.9372,-74.3771C589.7465,-63.1585 561.1201,-48.0033 538.8842,-36.2313"/>
<polygon fill="#000000" stroke="#000000" points="540.2616,-33.0004 529.7861,-31.4147 536.9864,-39.1869 540.2616,-33.0004"/>
</g>
<!-- assert -->
<g id="node11" class="node">
<title>assert</title>
<ellipse fill="none" stroke="#000000" cx="745.4472" cy="-18" rx="34.3788" ry="18"/>
<text text-anchor="middle" x="745.4472" y="-13.8" font-family="sans" font-size="14.00" fill="#000000">assert</text>
</g>
<!-- receiveWine&#45;&gt;assert -->
<g id="edge6" class="edge">
<title>receiveWine&#45;&gt;assert</title>
<path fill="none" stroke="#000000" d="M664.5363,-73.4817C679.7599,-63.0427 699.5443,-49.4763 715.7387,-38.3716"/>
<polygon fill="#000000" stroke="#000000" points="718.0464,-41.033 724.3144,-32.4911 714.0877,-35.2599 718.0464,-41.033"/>
</g>
<!-- ReceiveWine -->
<g id="node12" class="node">
<title>ReceiveWine</title>
<ellipse fill="none" stroke="#000000" cx="631.4472" cy="-18" rx="62.41" ry="18"/>
<text text-anchor="middle" x="631.4472" y="-13.8" font-family="sans" font-size="14.00" fill="#000000">ReceiveWine</text>
</g>
<!-- receiveWine&#45;&gt;ReceiveWine -->
<g id="edge7" class="edge">
<title>receiveWine&#45;&gt;ReceiveWine</title>
<path fill="none" stroke="#000000" d="M638.1761,-71.8314C637.2136,-64.131 636.069,-54.9743 634.9993,-46.4166"/>
<polygon fill="#000000" stroke="#000000" points="638.4623,-45.9019 633.7489,-36.4133 631.5163,-46.7702 638.4623,-45.9019"/>
</g>
<!-- null -->
<g id="node13" class="node">
<title>null</title>
<ellipse fill="none" stroke="#000000" cx="892.4472" cy="-90" rx="27" ry="18"/>
<text text-anchor="middle" x="892.4472" y="-85.8" font-family="sans" font-size="14.00" fill="#000000">null</text>
</g>
<!-- ReceiveFunds -->
<g id="node14" class="node">
<title>ReceiveFunds</title>
<ellipse fill="none" stroke="#000000" cx="892.4472" cy="-18" rx="66.7704" ry="18"/>
<text text-anchor="middle" x="892.4472" y="-13.8" font-family="sans" font-size="14.00" fill="#000000">ReceiveFunds</text>
</g>
<!-- null&#45;&gt;ReceiveFunds -->
<g id="edge8" class="edge">
<title>null&#45;&gt;ReceiveFunds</title>
<path fill="none" stroke="#000000" d="M892.4472,-71.8314C892.4472,-64.131 892.4472,-54.9743 892.4472,-46.4166"/>
<polygon fill="#000000" stroke="#000000" points="895.9473,-46.4132 892.4472,-36.4133 888.9473,-46.4133 895.9473,-46.4132"/>
</g>
</g>
</svg>
